<svg xmlns="http://www.w3.org/2000/svg" xmlns:xlink="http://www.w3.org/1999/xlink" width="110" height="57" viewBox="0 0 110 57"><defs><style>.a,.d{fill:#707070;font-size:12px;}.a{font-family:Arial-BoldMT, Arial;font-weight:700;}.b{fill:#fff;}.b,.e{stroke:rgba(0,0,0,0.2);stroke-width:2px;}.c{fill:url(#a);}.d{font-family:ArialMT, Arial;}.e,.g{fill:none;}.f,.h{stroke:none;}.h{fill:rgba(112,112,112,0.05);}</style><linearGradient id="a" x1="0.5" y1="0.267" x2="0.5" y2="1" gradientUnits="objectBoundingBox"><stop offset="0" stop-color="#915f48"/><stop offset="1" stop-color="#493024"/></linearGradient></defs><g transform="translate(-329 -2171)"><text class="a" transform="translate(400 2225)"><tspan x="0" y="0">Amber</tspan></text><g class="b" transform="translate(398 2171)"><circle class="f" cx="20" cy="20" r="20"/><circle class="g" cx="20" cy="20" r="19"/></g><g class="c" transform="translate(404.5 2177.5)"><path class="f" d="M13.5,0A13.5,13.5,0,1,1,0,13.5,13.5,13.5,0,0,1,13.5,0Z"/><path class="h" d="M 13.5 1 C 10.16113090515137 1 7.022109985351562 2.300230026245117 4.661169052124023 4.661169052124023 C 2.300230026245117 7.022109985351562 1 10.16113090515137 1 13.5 C 1 16.83887100219727 2.300230026245117 19.97789001464844 4.661169052124023 22.33882904052734 C 7.022109985351562 24.69976997375488 10.16113090515137 26 13.5 26 C 16.83887100219727 26 19.97789001464844 24.69976997375488 22.33882904052734 22.33882904052734 C 24.69976997375488 19.97789001464844 26 16.83887100219727 26 13.5 C 26 10.16113090515137 24.69976997375488 7.022109985351562 22.33882904052734 4.661169052124023 C 19.97789001464844 2.300230026245117 16.83887100219727 1 13.5 1 M 13.5 0 C 20.95584106445312 0 27 6.044160842895508 27 13.5 C 27 20.95584106445312 20.95584106445312 27 13.5 27 C 6.044160842895508 27 0 20.95584106445312 0 13.5 C 0 6.044160842895508 6.044160842895508 0 13.5 0 Z"/></g><text class="d" transform="translate(334 2225)"><tspan x="0" y="0">Clear</tspan></text><g class="e" transform="translate(329 2171)"><circle class="f" cx="20" cy="20" r="20"/><circle class="g" cx="20" cy="20" r="19"/></g></g></svg>