<svg xmlns="http://www.w3.org/2000/svg" width="119.495" height="147.576" viewBox="0 0 119.495 147.576"><defs><style>.a{isolation:isolate;}.b{fill:#f3f3f3;}.c{fill:none;}.d{fill:#e7e7e7;}.e{fill:#ea482f;}.f{fill:#f9f9f9;}</style></defs><g class="a"><path class="b" d="M124.172,26.59c.116,0-58.223-22.394-59.718-22.968C63.307,4.081,4.62,26.59,4.736,26.59V68.852c0,29.284,8.383,67.529,59.718,81.767,51.219-14.24,59.6-53.171,59.6-81.767.114-14.471.114-42.263.114-42.263Zm0,0" transform="translate(-4.735 -3.395)"/><rect class="c" width="119.495" height="147.576"/><path class="d" d="M4.736,68.852c0,29.284,8.383,67.529,59.718,81.767v-147C62.271,4.426,4.736,26.59,4.736,26.59V68.852Zm0,0" transform="translate(-4.735 -3.395)"/><path class="e" d="M106.376,25.658c.117,0-46.968-16.352-48.234-16.811C57.109,9.192,9.8,27.452,9.908,27.335V62.822c0,24.576,4.824,58.111,48.234,70.054,43.3-11.943,48.234-46.052,48.234-70.054.117-12.172.117-34.566,0-34.566Zm0,.58" transform="translate(1.46 2.864)"/><path class="e" d="M58.2,8.847c-1.033.345-48.351,18.6-48.234,18.488V62.822c0,24.576,4.824,58.111,48.234,70.054Zm0,0" transform="translate(1.523 2.864)"/><path class="f" d="M4.758,37.926,64.417,15.015V3.622L4.758,26.534Z" transform="translate(-4.709 -3.394)"/><path class="f" d="M91.562,37.927,31.9,15.016V3.623L91.562,26.534Z" transform="translate(27.806 -3.393)"/><path class="f" d="M51.715,22.015l7.629,15.458a2.811,2.811,0,0,0,2.119,1.539l17.06,2.479a2.814,2.814,0,0,1,1.558,4.8L67.737,58.324a2.813,2.813,0,0,0-.809,2.49L69.843,77.8a2.815,2.815,0,0,1-4.084,2.967L50.5,72.751a2.8,2.8,0,0,0-2.62,0l-15.258,8.02A2.815,2.815,0,0,1,28.54,77.8l2.914-16.989a2.819,2.819,0,0,0-.809-2.49L18.3,46.291a2.815,2.815,0,0,1,1.56-4.8l17.06-2.479a2.811,2.811,0,0,0,2.119-1.539l7.629-15.458A2.813,2.813,0,0,1,51.715,22.015Z" transform="translate(10.492 16.758)"/></g></svg>