<svg xmlns="http://www.w3.org/2000/svg" width="42" height="42" viewBox="0 0 42 42"><defs><style>.a{fill:#193b69;}.b,.d{fill:none;}.b{stroke:#193b69;stroke-width:2px;}.c{stroke:none;}</style></defs><g transform="translate(-941 -72)"><path class="a" d="M414.469,82.114a20.339,20.339,0,0,0,8.926,8.926l2.975-2.975a1.077,1.077,0,0,1,1.352-.27,14.146,14.146,0,0,0,4.869.811,1.387,1.387,0,0,1,1.352,1.352v4.733a1.387,1.387,0,0,1-1.352,1.352A23.088,23.088,0,0,1,409.6,73.052a1.387,1.387,0,0,1,1.352-1.352h4.733a1.386,1.386,0,0,1,1.352,1.352,15.317,15.317,0,0,0,.811,4.869,1.478,1.478,0,0,1-.27,1.352Z" transform="translate(540.021 9.062)"/><g class="b" transform="translate(941 72)"><circle class="c" cx="21" cy="21" r="21"/><circle class="d" cx="21" cy="21" r="20"/></g></g></svg>